<svg width="360" height="280" viewBox="0 0 360 280" fill="none" xmlns="http://www.w3.org/2000/svg">
<path opacity="0.35" d="M356.456 235.101C353.046 249.649 346.343 264.536 334.174 272.832C333.731 273.139 333.274 273.434 332.821 273.721C332.144 274.134 331.467 274.533 330.791 274.909C330.615 275.007 330.452 275.098 330.263 275.19C328.782 275.954 327.251 276.619 325.682 277.179C314.077 281.364 300.754 280.001 288.767 276.421C286.52 275.745 284.294 275.01 282.092 274.215C280.342 273.589 278.607 272.93 276.875 272.253H276.834C276.56 272.148 276.283 272.04 276.012 271.915L275.112 271.576C273.515 270.94 271.921 270.293 270.331 269.634C268.457 268.866 266.586 268.092 264.715 267.327C259.332 265.128 253.922 263.01 248.364 261.308C246.053 260.601 243.715 259.955 241.367 259.393C234.36 257.678 227.228 256.487 220.09 255.374L216.392 254.805C212.636 254.227 208.857 253.652 205.071 253.158C201.133 252.643 197.185 252.217 193.23 251.98C185.787 251.524 178.343 251.72 171.042 253.188C165.494 254.305 160.087 256.138 154.748 258.263C137.575 265.091 121.108 274.868 102.984 273.217C93.9507 272.395 85.4486 268.728 77.2137 264.928C65.3959 259.481 53.6051 253.574 43.3064 245.762C40.3993 243.57 37.6246 241.208 34.9971 238.687C34.9226 238.623 34.8516 238.552 34.7805 238.484L34.7197 238.424L34.6385 238.346L34.5065 238.217C32.5645 236.323 30.7206 234.337 28.9545 232.279L27.3644 230.385C24.8134 227.272 22.4316 224.014 20.1614 220.675L19.434 219.619L19.0178 218.997C17.6014 216.859 16.2187 214.694 14.8699 212.504C12.7926 209.145 10.7762 205.738 8.78004 202.354C5.36631 196.603 1.8883 190.662 0.710917 184.085C0.0262468 180.145 0.099738 176.111 0.927446 172.199C1.23582 170.698 1.62432 169.214 2.09129 167.754C2.16234 167.54 2.22663 167.334 2.30106 167.124C3.09331 164.792 4.02656 162.509 5.09565 160.29C12.4475 144.812 25.5239 129.983 25.057 112.873C24.6882 99.6786 16.2977 88.3209 9.93712 76.7569C3.57655 65.1928 -0.781111 50.2928 6.55384 39.3141C12.7588 29.9965 24.9893 27.1343 36.0933 25.7099C47.3969 24.2321 58.7834 23.4795 70.1832 23.4567C78.8207 23.4262 87.0252 25.4088 95.4901 25.6896C105.85 26.028 117.329 21.2135 127.293 18.7133C138.841 15.8217 150.376 12.9324 161.897 10.0453C181.595 5.11251 201.519 0.166158 221.822 0.0240598C242.125 -0.118038 263.162 5.09898 278.532 18.3648C283.797 22.9153 288.401 28.4977 290.526 35.1256C294.945 48.9125 287.972 64.3808 292.218 78.2184C295.889 90.1377 306.871 97.9565 316.134 106.3C351.195 137.916 367.235 189.153 356.456 235.101Z" fill="white"/>
</svg>
