<svg width="32" height="40" viewBox="0 0 32 40" fill="none" xmlns="http://www.w3.org/2000/svg">
<path d="M15.2408 31.3283V29.6294C15.2408 27.7162 16.7971 26.1602 18.71 26.1602C25.9224 26.1599 31.7901 20.2925 31.7901 13.0801C31.7901 5.86774 25.9224 0 18.71 0L1.1546 0C0.516857 0 -7.6419e-06 0.516866 -7.6419e-06 1.1546L-7.6419e-06 38.2559C-7.6419e-06 38.8936 0.516857 39.4105 1.1546 39.4105H7.15854C11.6152 39.4105 15.2408 35.7849 15.2408 31.3283ZM18.71 2.30921C24.6493 2.30921 29.4809 7.14081 29.4809 13.0801C29.4809 19.0191 24.649 23.851 18.71 23.851C15.5237 23.851 12.9316 26.4431 12.9316 29.6294V31.3283C12.9316 34.1162 10.945 36.4488 8.31314 36.9852L8.31314 2.30921L18.71 2.30921Z" fill="black"/>
</svg>
