<svg width="457" height="337" viewBox="0 0 457 337" fill="none" xmlns="http://www.w3.org/2000/svg">
<path opacity="0.5" d="M3.61166 238.64C-0.55302 225.752 -1.59258 210.212 6.28729 195.378C6.57127 194.833 6.87587 194.289 7.18061 193.751C7.64403 192.961 8.11451 192.181 8.59734 191.417C8.72263 191.218 8.8379 191.034 8.98028 190.83C10.067 189.2 11.2553 187.605 12.5373 186.056C21.9937 174.572 36.0667 165.794 49.9547 159.577C52.5605 158.416 55.176 157.311 57.7994 156.267C59.88 155.433 61.9647 154.634 64.0547 153.85L64.0954 153.82C64.425 153.694 64.7596 153.568 65.0963 153.46L66.1753 153.043C68.1085 152.328 70.0441 151.624 71.9823 150.931C74.2625 150.107 76.5428 149.291 78.8178 148.468C85.3628 146.099 91.8926 143.652 98.3548 140.799C101.041 139.613 103.722 138.363 106.37 137.046C114.292 133.142 122.065 128.773 129.805 124.342L133.81 122.042C137.878 119.706 141.968 117.351 146.022 114.932C150.24 112.417 154.422 109.832 158.512 107.106C166.215 101.984 173.578 96.3955 180.134 90.0024C185.117 85.1434 189.583 79.8761 193.83 74.4505C207.494 57.0027 218.91 37.9651 237.948 25.8781C247.436 19.8533 257.875 16.2498 268.115 12.9362C282.807 8.17708 297.712 3.76642 312.113 1.80859C316.172 1.24638 320.186 0.902914 324.135 0.780023C324.243 0.771465 324.352 0.770213 324.458 0.766547L324.551 0.765477L324.673 0.761631L324.872 0.756897C327.808 0.68884 330.692 0.75785 333.536 0.934587L336.119 1.12408C340.3 1.48034 344.387 2.06433 348.405 2.78806L349.685 3.00967L350.427 3.14978C352.962 3.64042 355.477 4.17434 357.972 4.75158C361.807 5.63096 365.605 6.58876 369.371 7.5445C375.794 9.1544 382.379 10.8526 386.989 14.6891C389.73 17.0022 391.759 19.9376 392.969 23.338C393.442 24.6364 393.826 25.9808 394.119 27.3657C394.159 27.5699 394.202 27.7644 394.237 27.9687C394.659 30.2149 394.913 32.5284 394.997 34.8963C395.694 51.3347 390.311 71.4993 399.7 83.3796C406.949 92.5354 421.285 94.5071 433.693 98.1122C446.102 101.717 458.24 109.171 456.608 122.383C455.243 133.581 444.469 144.578 434.076 153.723C423.51 163.053 412.482 171.925 401.061 180.286C392.415 186.63 383.153 191.219 374.517 197.214C363.951 204.556 354.948 216.397 346.259 225.477C336.184 235.995 326.122 246.502 316.073 256.998C298.89 274.94 281.487 293.057 261.199 308.02C240.911 322.982 217.093 334.654 194.761 336.428C187.109 337.031 179.581 336.414 173.994 333.234C162.375 326.62 161.303 310.466 149.83 303.689C139.935 297.861 124.844 300.315 111.204 301.135C59.5569 304.213 16.7572 279.354 3.61166 238.64Z" fill="white"/>
</svg>
